<?xml version="1.0" encoding="UTF-8"?>
<svg width="1244px" height="771px" viewBox="0 0 1244 771" version="1.1" xmlns="http://www.w3.org/2000/svg" xmlns:xlink="http://www.w3.org/1999/xlink">
    <!-- Generator: Sketch 57.1 (83088) - https://sketch.com -->
    <title>Ascent</title>
    <desc>Created with Sketch.</desc>
    <g id="Page-1" stroke="white" stroke-width="1" fill="white" fill-rule="evenodd">
        <g id="Ascent_Dynamic-WHITE-(1)" fill="white">
            <path d="M942.774,403.584 L780.389,770.7 L688.088,771 L439.907,673.648 L147.199,557.292 L52.509,770 L0,770 L121.091,497.957 L740.71,739.728 L873.778,440.637 L942.774,403.584 Z M216.476,718.179 L362.061,770.999 L193.785,770 L216.476,718.179 Z M168.385,608.861 L587.347,770.999 L457.015,770.999 L194.048,667.976 L148.597,770 L96.088,770 L168.385,608.861 Z M1032.96,614.106 L963.541,770.001 L911.036,770.001 L963.966,651.159 L1032.96,614.106 Z M1198.21,316.572 L1243.68,333.589 L1243.68,382.912 L1224.32,375.91 L1054.61,770 L1003.76,770 L1198.21,316.572 Z M1243.68,430.827 L1243.68,550.496 L1145.97,770 L1093.46,770 L1243.68,430.827 Z M1243.68,637.727 L1243.74,770 L1184.78,770 L1243.68,637.727 Z M1108.86,106.053 L1243.68,157.78 L1243.68,207.095 L1134.97,165.388 L871.596,769.999 L819.087,769.999 L1108.86,106.053 Z M1153.97,211.314 L1243.9,245.903 L1243.9,295.221 L1180.08,270.649 L1047.01,569.74 L978.019,606.793 L1153.97,211.314 Z M1063.79,0.792 L1243.68,69.807 L1243.68,119.126 L1089.9,60.13 L956.827,359.218 L887.834,396.27 L1063.79,0.792 Z" id="Ascent"></path>
        </g>
    </g>
</svg>