<?xml version="1.0" encoding="UTF-8"?>
<svg width="114px" height="115px" viewBox="0 0 114 115" version="1.1" xmlns="http://www.w3.org/2000/svg" xmlns:xlink="http://www.w3.org/1999/xlink">
    <!-- Generator: Sketch 55.2 (78181) - https://sketchapp.com -->
    <title>flags  / flag-icon-us</title>
    <desc>Created with Sketch.</desc>
    <defs>
        <path d="M56.773,0.79 C88.084,0.79 113.467,26.17 113.467,57.48 C113.467,88.8 88.084,114.18 56.773,114.18 C25.463,114.18 0.081,88.8 0.081,57.48 C0.081,26.17 25.463,0.79 56.773,0.79 L56.773,0.79 Z" id="path-1"></path>
    </defs>
    <g id="PGIM-Flags" stroke="none" stroke-width="1" fill="none" fill-rule="evenodd">
        <g id="Artboard" transform="translate(-352.000000, -391.000000)">
            <g id="flags--/-flag-icon-us" transform="translate(352.000000, 391.000000)">
                <path d="M56.773,0.79 C88.084,0.79 113.467,26.17 113.467,57.48 C113.467,88.8 88.084,114.18 56.773,114.18 C25.463,114.18 0.081,88.8 0.081,57.48 C0.081,26.17 25.463,0.79 56.773,0.79" id="Fill-1933" fill="#CCCCCC"></path>
                <g id="Group-1939">
                    <mask id="mask-2" fill="white">
                        <use xlink:href="#path-1"></use>
                    </mask>
                    <g id="Clip-1935"></g>
                    <polygon id="Fill-1934" fill="#F0F0F0" mask="url(#mask-2)" points="-28.266 114.18 141.812 114.18 141.812 0.79 -28.266 0.79"></polygon>
                    <path d="M-28.266,96.73 L141.812,96.73 L141.812,88.01 L-28.266,88.01 L-28.266,96.73 Z M-28.266,79.29 L141.812,79.29 L141.812,70.57 L-28.266,70.57 L-28.266,79.29 Z M-28.266,61.85 L141.812,61.85 L141.812,53.12 L-28.266,53.12 L-28.266,61.85 Z M-28.266,44.4 L141.812,44.4 L141.812,35.68 L-28.266,35.68 L-28.266,44.4 Z M-28.266,26.96 L141.812,26.96 L141.812,18.24 L-28.266,18.24 L-28.266,26.96 Z M-28.266,9.51 L141.812,9.51 L141.812,0.79 L-28.266,0.79 L-28.266,9.51 Z M-28.266,114.18 L141.812,114.18 L141.812,105.46 L-28.266,105.46 L-28.266,114.18 Z" id="Fill-1936" fill="#FF1612" mask="url(#mask-2)"></path>
                    <polygon id="Fill-1937" fill="#0540A8" mask="url(#mask-2)" points="-28.266 61.85 57.908 61.85 57.908 0.79 -28.266 0.79"></polygon>
                    <path d="M37.52,19.49 L39.572,18 L37.036,18 L36.251,15.58 L35.466,18 L32.93,18 L34.983,19.49 L34.199,21.9 L36.252,20.41 L38.304,21.9 L37.52,19.49 Z M23.233,19.49 L25.287,18 L22.748,18 L21.965,15.58 L21.18,18 L18.642,18 L20.696,19.49 L19.913,21.9 L21.965,20.41 L24.017,21.9 L23.233,19.49 Z M8.948,19.48 L11,18 L8.463,18 L7.678,15.58 L6.894,18 L4.356,18 L6.409,19.49 L5.626,21.9 L7.679,20.41 L9.731,21.9 L8.948,19.48 Z M51.979,32.2 L54.032,30.71 L51.495,30.71 L50.712,28.3 L49.926,30.71 L47.39,30.71 L49.441,32.21 L48.659,34.62 L50.711,33.13 L52.764,34.62 L51.979,32.2 Z M37.692,32.2 L39.744,30.71 L37.208,30.71 L36.424,28.3 L35.639,30.71 L33.101,30.71 L35.155,32.2 L34.371,34.62 L36.424,33.13 L38.476,34.62 L37.692,32.2 Z M51.904,44.04 L53.957,42.55 L51.421,42.55 L50.638,40.13 L49.851,42.55 L47.315,42.55 L49.368,44.04 L48.584,46.45 L50.636,44.96 L52.688,46.45 L51.904,44.04 Z M37.618,44.04 L39.671,42.55 L37.134,42.55 L36.349,40.13 L35.564,42.55 L33.027,42.55 L35.082,44.04 L34.298,46.45 L36.349,44.96 L38.401,46.45 L37.618,44.04 Z M52.189,55.93 L54.242,54.44 L51.704,54.44 L50.92,52.03 L50.136,54.44 L47.599,54.44 L49.65,55.93 L48.868,58.34 L50.92,56.85 L52.974,58.34 L52.189,55.93 Z M37.902,55.93 L39.954,54.44 L37.418,54.44 L36.634,52.03 L35.849,54.44 L33.313,54.44 L35.366,55.93 L34.581,58.34 L36.634,56.85 L38.685,58.34 L37.902,55.93 Z M23.615,55.93 L25.667,54.44 L23.132,54.44 L22.348,52.03 L21.563,54.44 L19.025,54.44 L21.078,55.93 L20.294,58.34 L22.347,56.85 L24.399,58.34 L23.615,55.93 Z M23.332,44.04 L25.384,42.55 L22.848,42.55 L22.061,40.13 L21.278,42.55 L18.74,42.55 L20.794,44.04 L20.01,46.45 L22.063,44.96 L24.115,46.45 L23.332,44.04 Z M23.406,32.2 L25.458,30.71 L22.922,30.71 L22.138,28.3 L21.352,30.71 L18.814,30.71 L20.868,32.2 L20.085,34.62 L22.137,33.13 L24.189,34.62 L23.406,32.2 Z M-5.34,19.49 L-3.288,18 L-5.823,18 L-6.609,15.58 L-7.393,18 L-9.929,18 L-7.878,19.49 L-8.661,21.9 L-6.609,20.41 L-4.556,21.9 L-5.34,19.49 Z M-19.627,19.49 L-17.574,18 L-20.11,18 L-20.895,15.58 L-21.68,18 L-24.216,18 L-22.163,19.49 L-22.949,21.9 L-20.895,20.41 L-18.842,21.9 L-19.627,19.49 Z M9.119,32.2 L11.173,30.71 L8.634,30.71 L7.849,28.3 L7.065,30.71 L4.528,30.71 L6.581,32.2 L5.798,34.62 L7.849,33.13 L9.902,34.62 L9.119,32.2 Z M9.045,44.04 L11.098,42.55 L8.559,42.55 L7.776,40.13 L6.991,42.55 L4.454,42.55 L6.508,44.04 L5.724,46.45 L7.776,44.96 L9.829,46.45 L9.045,44.04 Z M9.329,55.93 L11.382,54.44 L8.845,54.44 L8.059,52.03 L7.276,54.44 L4.739,54.44 L6.792,55.93 L6.008,58.34 L8.06,56.85 L10.113,58.34 L9.329,55.93 Z M-4.957,55.93 L-2.905,54.44 L-5.443,54.44 L-6.227,52.03 L-7.01,54.44 L-9.548,54.44 L-7.495,55.93 L-8.278,58.34 L-6.227,56.85 L-4.173,58.34 L-4.957,55.93 Z M-5.242,44.04 L-3.189,42.55 L-5.727,42.55 L-6.511,40.13 L-7.294,42.55 L-9.831,42.55 L-7.779,44.04 L-8.563,46.45 L-6.511,44.96 L-4.457,46.45 L-5.242,44.04 Z M-5.167,32.2 L-3.114,30.71 L-5.651,30.71 L-6.436,28.3 L-7.22,30.71 L-9.758,30.71 L-7.705,32.2 L-8.488,34.62 L-6.437,33.13 L-4.383,34.62 L-5.167,32.2 Z M-19.455,32.21 L-17.401,30.71 L-19.937,30.71 L-20.722,28.3 L-21.507,30.71 L-24.044,30.71 L-21.991,32.2 L-22.775,34.62 L-20.723,33.13 L-18.671,34.62 L-19.455,32.21 Z M-19.529,44.04 L-17.476,42.55 L-20.012,42.55 L-20.797,40.13 L-21.581,42.55 L-24.118,42.55 L-22.065,44.04 L-22.849,46.45 L-20.797,44.96 L-18.745,46.45 L-19.529,44.04 Z M-19.245,55.93 L-17.193,54.44 L-19.729,54.44 L-20.513,52.03 L-21.297,54.44 L-23.834,54.44 L-21.782,55.93 L-22.565,58.34 L-20.513,56.85 L-18.461,58.34 L-19.245,55.93 Z M44.664,13.36 L46.715,11.87 L44.178,11.87 L43.394,9.46 L42.611,11.87 L40.072,11.87 L42.126,13.36 L41.341,15.77 L43.394,14.28 L45.448,15.77 L44.664,13.36 Z M30.377,13.36 L32.43,11.87 L29.892,11.87 L29.108,9.46 L28.324,11.87 L25.787,11.87 L27.839,13.36 L27.056,15.77 L29.108,14.28 L31.162,15.77 L30.377,13.36 Z M16.09,13.36 L18.142,11.87 L15.605,11.87 L14.822,9.46 L14.037,11.87 L11.5,11.87 L13.553,13.36 L12.769,15.77 L14.821,14.28 L16.874,15.77 L16.09,13.36 Z M44.836,26.08 L46.888,24.59 L44.349,24.59 L43.566,22.18 L42.783,24.59 L40.245,24.59 L42.298,26.08 L41.514,28.49 L43.567,27 L45.619,28.49 L44.836,26.08 Z M44.762,37.91 L46.814,36.42 L44.276,36.42 L43.494,34.01 L42.708,36.42 L40.172,36.42 L42.224,37.91 L41.44,40.33 L43.493,38.83 L45.546,40.33 L44.762,37.91 Z M45.045,49.81 L47.098,48.32 L44.561,48.32 L43.776,45.9 L42.993,48.32 L40.456,48.32 L42.509,49.81 L41.724,52.22 L43.776,50.73 L45.83,52.22 L45.045,49.81 Z M30.759,49.81 L32.811,48.32 L30.274,48.32 L29.491,45.9 L28.707,48.32 L26.169,48.32 L28.221,49.81 L27.437,52.22 L29.489,50.73 L31.543,52.22 L30.759,49.81 Z M30.475,37.91 L32.528,36.42 L29.991,36.42 L29.208,34.01 L28.422,36.42 L25.886,36.42 L27.937,37.91 L27.154,40.33 L29.206,38.84 L31.26,40.33 L30.475,37.91 Z M30.549,26.08 L32.601,24.59 L30.063,24.59 L29.28,22.18 L28.497,24.59 L25.959,24.59 L28.012,26.08 L27.227,28.49 L29.28,27 L31.334,28.49 L30.549,26.08 Z M1.804,13.36 L3.855,11.87 L1.318,11.87 L0.534,9.46 L-0.249,11.87 L-2.786,11.87 L-0.733,13.36 L-1.518,15.77 L0.535,14.28 L2.587,15.77 L1.804,13.36 Z M-12.483,13.36 L-10.432,11.87 L-12.969,11.87 L-13.753,9.46 L-14.535,11.87 L-17.074,11.87 L-15.02,13.36 L-15.804,15.77 L-13.751,14.28 L-11.7,15.77 L-12.483,13.36 Z M16.262,26.08 L18.315,24.59 L15.778,24.59 L14.993,22.18 L14.209,24.59 L11.673,24.59 L13.724,26.08 L12.941,28.49 L14.993,27 L17.047,28.49 L16.262,26.08 Z M16.188,37.91 L18.24,36.42 L15.704,36.42 L14.92,34.01 L14.136,36.42 L11.598,36.42 L13.65,37.91 L12.867,40.33 L14.92,38.83 L16.974,40.33 L16.188,37.91 Z M16.472,49.81 L18.525,48.32 L15.989,48.32 L15.205,45.9 L14.42,48.32 L11.883,48.32 L13.934,49.81 L13.151,52.22 L15.203,50.73 L17.257,52.22 L16.472,49.81 Z M2.185,49.81 L4.239,48.32 L1.702,48.32 L0.918,45.9 L0.133,48.32 L-2.404,48.32 L-0.351,49.81 L-1.136,52.22 L0.917,50.73 L2.97,52.22 L2.185,49.81 Z M1.902,37.91 L3.954,36.42 L1.417,36.42 L0.632,34.01 L-0.151,36.42 L-2.689,36.42 L-0.635,37.91 L-1.42,40.33 L0.634,38.83 L2.685,40.33 L1.902,37.91 Z M1.975,26.08 L4.028,24.59 L1.491,24.59 L0.707,22.18 L-0.077,24.59 L-2.614,24.59 L-0.562,26.08 L-1.345,28.49 L0.707,27 L2.759,28.49 L1.975,26.08 Z M51.807,7.24 L53.859,5.75 L51.321,5.75 L50.538,3.34 L49.754,5.75 L47.218,5.75 L49.269,7.24 L48.486,9.65 L50.538,8.16 L52.59,9.65 L51.807,7.24 Z M37.52,7.24 L39.572,5.75 L37.035,5.75 L36.251,3.34 L35.467,5.75 L32.93,5.75 L34.983,7.24 L34.199,9.65 L36.252,8.16 L38.304,9.65 L37.52,7.24 Z M-12.31,26.08 L-10.259,24.59 L-12.796,24.59 L-13.58,22.18 L-14.363,24.59 L-16.902,24.59 L-14.849,26.08 L-15.633,28.49 L-13.579,27 L-11.527,28.49 L-12.31,26.08 Z M-12.385,37.91 L-10.333,36.42 L-12.87,36.42 L-13.654,34.01 L-14.437,36.42 L-16.975,36.42 L-14.922,37.91 L-15.706,40.33 L-13.653,38.83 L-11.602,40.33 L-12.385,37.91 Z M-12.101,49.81 L-10.048,48.32 L-12.585,48.32 L-13.371,45.9 L-14.155,48.32 L-16.692,48.32 L-14.638,49.81 L-15.422,52.22 L-13.37,50.73 L-11.318,52.22 L-12.101,49.81 Z M23.233,7.24 L25.287,5.75 L22.748,5.75 L21.965,3.34 L21.18,5.75 L18.642,5.75 L20.696,7.24 L19.913,9.65 L21.965,8.16 L24.017,9.65 L23.233,7.24 Z M8.947,7.24 L11,5.75 L8.462,5.75 L7.678,3.34 L6.894,5.75 L4.356,5.75 L6.409,7.24 L5.626,9.65 L7.679,8.16 L9.731,9.65 L8.947,7.24 Z M-5.34,7.24 L-3.288,5.75 L-5.824,5.75 L-6.609,3.34 L-7.393,5.75 L-9.929,5.75 L-7.877,7.24 L-8.661,9.65 L-6.609,8.16 L-4.556,9.65 L-5.34,7.24 Z M-19.627,7.24 L-17.574,5.75 L-20.11,5.75 L-20.895,3.34 L-21.68,5.75 L-24.216,5.75 L-22.163,7.24 L-22.949,9.65 L-20.895,8.16 L-18.842,9.65 L-19.627,7.24 Z M51.322,18 L50.538,15.58 L49.754,18 L47.218,18 L49.269,19.49 L48.486,21.9 L50.538,20.41 L52.59,21.9 L51.807,19.49 L53.859,18 L51.322,18 L51.322,18 Z" id="Fill-1938" fill="#FBF9F8" mask="url(#mask-2)"></path>
                </g>
            </g>
        </g>
    </g>
</svg>