<?xml version="1.0" encoding="UTF-8"?>
<svg width="224px" height="38px" viewBox="0 0 224 38" version="1.1" xmlns="http://www.w3.org/2000/svg" xmlns:xlink="http://www.w3.org/1999/xlink">
    <!-- Generator: Sketch 58 (84663) - https://sketch.com -->
    <title>PI-Dark</title>
    <desc>Created with Sketch.</desc>
    <g id="Symbols" stroke="none" stroke-width="1" fill="none" fill-rule="evenodd">
        <g id="Desktop-/-Global-/-Navigation-/-Light-/-PGIM-Investments" transform="translate(-40.000000, -31.000000)" fill="#002247">
            <g id="Navigation">
                <g id="Site-Branding" transform="translate(40.000000, 31.000000)">
                    <g id="Assets-/-Logos-/-Investments-/-Light">
                        <g id="PI-Dark">
                            <path d="M32.4284831,31.3233433 C29.1794588,35.6457015 23.5912693,38 18.4249236,38 C13.8965822,38 8.36132992,36.3586269 4.36456679,31.3233433 L32.4284831,31.3233433 Z M72.9745642,8.41841791 C75.4438668,8.41841791 76.5533436,9.46029851 77.1555049,10.0796418 C77.186385,10.1125373 77.1224191,10.0796418 77.1555049,10.1125373 L78.3901562,8.77629851 L79.4036842,8.77629851 L79.4036842,15.5505075 L78.3256389,15.5505075 C77.5988545,13.1729552 76.5208092,9.46029851 73.1653589,9.46029851 C69.0897317,9.46029851 68.436479,15.874085 68.4148123,19.9290465 L68.4142399,20.1439701 C68.4142399,24.3443881 68.9844183,30.4028358 72.689475,30.4028358 C73.7653146,30.4028358 74.6222364,30.0767164 75.2227435,29.1652836 C75.6357644,28.5782687 75.7614904,27.5692836 75.7614904,26.8847164 L75.7614904,22.1301791 C75.7614904,22.1301791 75.8249048,20.9249552 75.3181408,20.4366269 C74.9376543,20.0458507 74.3371472,20.0129552 73.7653146,20.0129552 L73.2916364,20.0129552 L73.2916364,19.003403 L81.9672813,19.003403 L81.9672813,20.0129552 L81.8090209,20.0129552 C81.2393939,20.0129552 80.669767,20.0458507 80.2892804,20.4366269 C79.8128451,20.89623 79.8405043,21.9908687 79.8454069,22.1180594 L79.8459309,31.346597 L78.8324029,31.346597 L76.7744669,29.3603881 L76.7430354,29.3603881 C76.0145967,30.5973731 74.4308903,31.6727164 72.1198481,31.6727164 C66.8310849,31.6727164 63.9504157,26.7877313 63.9504157,20.1439701 C63.9504157,13.3362985 67.6234895,8.41841791 72.9745642,8.41841791 Z M54.4691319,8.90731343 C58.870093,8.90731343 62.734513,10.536209 62.734513,15.2578507 C62.734513,19.7526269 58.9660418,21.5437313 54.4691319,21.5437313 L52.916857,21.5437313 L52.916857,28.1880597 C52.916857,28.8726269 52.97972,29.4256119 53.3298779,29.7834925 C53.5818813,30.0761493 54.1211797,30.2394925 55.0067759,30.2394925 L55.893475,30.2394925 L55.893475,31.2167164 L46.3934426,31.2167164 L46.3934426,30.2394925 L46.6476517,30.2394925 C47.4395049,30.2394925 48.0416662,30.1096119 48.326204,29.8481493 C48.6421733,29.5549254 48.832968,29.0671642 48.832968,28.1880597 L48.832968,12.1310746 C48.832968,11.0886269 48.6421733,10.3728657 48.1684951,10.1125373 C47.8503201,9.91686567 47.2503645,9.88453731 46.4574085,9.88453731 L46.3934426,9.88453731 L46.3934426,8.90731343 L54.4691319,8.90731343 Z M91.8119573,8.90731343 L91.8119573,9.88510448 L91.3366248,9.88510448 C90.4184942,9.88510448 90.0380077,10.0467463 89.7534699,10.3399701 C89.4358464,10.6995522 89.3415519,11.545194 89.3415519,12.229194 L89.3415519,28.1880597 C89.3415519,28.8726269 89.4049663,29.4256119 89.7220384,29.7834925 C90.007679,30.0767164 90.5442202,30.2389254 91.4320222,30.2389254 L91.8119573,30.2389254 L91.8119573,31.2167164 L82.7861545,31.2167164 L82.7861545,30.2389254 L83.198624,30.2389254 C83.9579428,30.2389254 84.4647068,30.1096119 84.749796,29.8487164 C85.0674195,29.5549254 85.25656,29.0677313 85.25656,28.1880597 L85.25656,12.229194 C85.25656,11.1867463 85.0674195,10.3728657 84.5909842,10.1131045 C84.3013457,9.93321891 84.0914041,9.89154022 83.4484967,9.88584297 L82.7861545,9.88510448 L82.7861545,8.90731343 L91.8119573,8.90731343 Z M100.919923,8.9078806 L105.637956,24.4425075 L110.292024,8.9078806 L117.354185,8.9078806 L117.354185,9.88453731 L117.005682,9.88453731 C115.992705,9.88453731 115.453958,10.0796418 115.168318,10.5679701 C114.947194,10.9593134 114.88378,11.7079701 114.88378,12.457194 L114.88378,27.8619403 C114.88378,29.5883881 115.264266,30.2394925 117.069096,30.2394925 L117.354185,30.2394925 L117.354185,31.2167164 L108.360917,31.2167164 L108.360917,30.2394925 L108.646006,30.2394925 C110.450836,30.2394925 110.799891,29.5883881 110.799891,27.8619403 L110.799891,11.5134328 L104.720377,31.2167164 L103.801144,31.2167164 L97.658216,11.5134328 L97.7530619,25.9074925 C97.7844934,28.6111642 98.0695826,29.2305075 98.4495177,29.6207164 C98.7980213,29.9797313 99.2733538,30.2394925 99.9063952,30.2394925 L100.254347,30.2394925 L100.254347,31.2167164 L94.1114195,31.2167164 L94.1114195,30.2394925 L94.2702313,30.2394925 C94.8723927,30.2394925 95.3791566,29.9797313 95.7271088,29.6207164 C96.1059411,29.2305075 96.3921332,28.7092836 96.4230132,25.9074925 L96.5184106,12.1968657 C96.5184106,11.0886269 96.3270644,10.4709851 95.6945745,10.1448657 C95.3466223,9.94976119 95.0620845,9.88453731 94.4290431,9.88453731 L94.1114195,9.88453731 L94.1114195,8.9078806 L100.919923,8.9078806 Z M18.5313496,0.431044776 C29.2334989,0.431044776 34.9325258,9.19486567 35.8892565,13.7361493 L26.4658728,11.1107463 L18.3173948,6.23597015 L15.3363653,5.68298507 L15.3363653,7.93235821 L17.6253504,10.1210448 L14.4303662,9.8499403 C14.4303662,9.8499403 14.5395493,10.0149851 17.1990952,12.9160299 L29.3410277,14.9992239 L31.471201,16.4233731 L25.9331916,16.6950448 L23.640898,25.2960896 L16.1331814,30.4425373 L11.2375877,30.4425373 L12.8852599,27.1013731 L12.6222279,26.9930448 L8.19755527,30.4425373 L7.13550149,30.4425373 L11.6605344,23.9269552 C11.875592,22.0592836 11.7669603,22.8850746 12.0371609,19.5450448 L11.3429108,18.5564776 L9.52980965,25.7861194 L5.74975843,30.4425373 L4.79027059,30.4425373 L7.03128126,27.2142388 L10.1722254,17.2956716 L9.37044644,17.6819104 L7.98690909,21.6276716 L7.03128126,22.1715821 C7.03128126,22.1715821 4.79027059,27.7604179 3.61958515,30.4998209 C1.91842424,27.9776418 1.31450406e-13,24.5820299 1.31450406e-13,18.6670746 C1.31450406e-13,9.79492537 7.39908493,0.431044776 18.5313496,0.431044776 Z M34.1329526,20.0373433 L36.5846095,20.9130448 C36.3667947,24.0874627 35.3543696,27.3248358 33.1707076,30.4425373 L29.0730329,30.4425373 L32.9589586,24.1464478 L34.1329526,20.0373433 Z M30.9920085,18.7737015 L33.4409082,19.8150149 L31.7375416,23.9269552 L30.1929868,25.2960896 L27.0994656,30.4425373 L25.0806812,30.4425373 L27.0994656,26.7724179 L28.6975092,25.4032836 L30.9920085,18.7737015 Z M26.1449407,24.368209 L26.6241332,25.2960896 L23.9634844,30.4425373 L21.4092616,30.4425373 L26.1449407,24.368209 Z M18.5313496,1.63343284 C8.09554076,1.63343284 1.28041997,10.453403 1.28041997,18.6670746 C1.28041997,23.376806 2.39871959,25.7350746 3.61958515,27.9776418 C5.16083141,23.7029254 8.25159539,15.2164478 8.25159539,15.2164478 C8.25159539,15.2164478 9.69137857,14.4490746 9.69137857,14.560806 L11.7669603,9.13531343 L13.1014204,8.42352239 L14.7479898,4.80614925 L18.3703321,5.4118806 L25.7186854,9.63328358 L33.9746923,11.9898507 C31.8434161,6.39647761 25.8273171,1.63343284 18.5313496,1.63343284 Z M27.2643431,17.2406567 L30.4008758,18.5564776 L28.1703423,22.8850746 L26.943411,23.1096716 L27.2643431,20.5874925 L26.943411,20.091791 L27.2643431,17.2406567 Z M54.4691319,9.85164179 L52.916857,9.85164179 L52.916857,20.4683881 L54.4691319,20.4683881 C57.9525139,20.4683881 58.6164353,17.8962985 58.6164353,15.2578507 C58.6164353,12.6199701 57.9833939,9.85164179 54.4691319,9.85164179 Z" id="PGIM-Logo"></path>
                            <path d="M163.534232,13.0074987 C165.642416,13.0074987 167.018834,14.4274741 167.140795,16.9799453 L165.712108,16.9189647 C165.590147,15.4205858 164.980342,14.305513 163.46454,14.305513 C162.936352,14.2683272 162.417103,14.4564446 162.035298,14.8233096 C161.653493,15.1901745 161.444809,15.701505 161.460893,16.2307558 C161.460893,19.5324165 167.332448,19.575974 167.332448,24.2714756 C167.332448,26.5974476 165.990876,28 163.586501,28 C161.182125,28 159.918957,26.3186794 159.884111,23.8707463 L161.338932,23.8707463 C161.338932,25.6130474 162.210083,26.6671396 163.752019,26.6671396 C165.067457,26.6671396 165.921184,25.7959891 165.921184,24.2540525 C165.921184,20.9349689 160.049629,20.5429511 160.049629,16.4136974 C160.0078,15.4842497 160.364258,14.5810612 161.029585,13.9307046 C161.694911,13.2803481 162.605976,12.944532 163.534232,13.0074987 Z M219.767001,13.0074987 C221.875185,13.0074987 223.251603,14.4274741 223.373564,16.9799453 L221.953589,16.9189647 C221.831628,15.4205858 221.221823,14.305513 219.706021,14.305513 C219.177833,14.2683272 218.658584,14.4564446 218.276779,14.8233096 C217.894974,15.1901745 217.68629,15.701505 217.702374,16.2307558 C217.702374,19.5324165 223.573929,19.575974 223.573929,24.2714756 C223.573929,26.5974476 222.241069,28 219.827982,28 C217.414895,28 216.160438,26.3186794 216.11688,23.8707463 L217.571702,23.8707463 C217.571702,25.6130474 218.442852,26.6671396 219.984789,26.6671396 C221.300226,26.6671396 222.153954,25.7959891 222.153954,24.2540525 C222.153954,20.9349689 216.282399,20.5429511 216.282399,16.4136974 C216.240569,15.4842497 216.597028,14.5810612 217.262354,13.9307046 C217.927681,13.2803481 218.838746,12.944532 219.767001,13.0074987 Z M129.576783,13.1555943 L129.576783,27.7822124 L128,27.7822124 L128,13.1555943 L129.576783,13.1555943 Z M134.673013,13.1555943 L138.445095,23.9317268 L138.445095,13.1555943 L140.021878,13.1555943 L140.021878,27.7822124 L138.279577,27.7822124 L133.801863,15.0547025 L133.801863,27.7822124 L132.22508,27.7822124 L132.22508,13.1555943 L134.673013,13.1555943 Z M143.062193,13.1555943 L145.675645,24.7418969 L148.289097,13.1555943 L149.865879,13.1555943 L146.381277,27.7822124 L144.926456,27.7822124 L141.441853,13.1555943 L143.062193,13.1555943 Z M158.194079,13.1555943 L158.194079,14.4971662 L153.089136,14.4971662 L153.089136,19.4801474 L156.861218,19.4801474 L156.861218,20.8130078 L153.089136,20.8130078 L153.089136,26.4406405 L158.438001,26.4406405 L158.438001,27.7822124 L151.468796,27.7822124 L151.468796,13.1555943 L158.194079,13.1555943 Z M175.852301,13.1555943 L175.852301,14.4971662 L172.855543,14.4971662 L172.855543,27.7822124 L171.261337,27.7822124 L171.261337,14.4884547 L168.264579,14.4884547 L168.264579,13.1555943 L175.852301,13.1555943 Z M179.66794,13.1555943 L182.220412,24.2192065 L184.711902,13.1555943 L187.220816,13.1555943 L187.220816,27.7822124 L185.765994,27.7822124 L185.765994,14.3664936 L182.725679,27.7822124 L181.715144,27.7822124 L178.648694,14.3664936 L178.648694,27.7822124 L177.193873,27.7822124 L177.193873,13.1555943 L179.66794,13.1555943 Z M196.411454,13.1555943 L196.411454,14.4971662 L191.2978,14.4971662 L191.2978,19.4801474 L195.069882,19.4801474 L195.069882,20.8130078 L191.2978,20.8130078 L191.2978,26.4406405 L196.646665,26.4406405 L196.646665,27.7822124 L189.67746,27.7822124 L189.67746,13.1555943 L196.411454,13.1555943 Z M200.993706,13.1555943 L204.765788,23.9317268 L204.765788,13.1555943 L206.342571,13.1555943 L206.342571,27.7822124 L204.60027,27.7822124 L200.061575,15.063414 L200.061575,27.7822124 L198.484793,27.7822124 L198.484793,13.1555943 L200.993706,13.1555943 Z M215.237018,13.1555943 L215.237018,14.4971662 L212.205414,14.4971662 L212.205414,27.7822124 L210.628632,27.7822124 L210.628632,14.4884547 L207.631874,14.4884547 L207.631874,13.1555943 L215.237018,13.1555943 Z" id="Investments" fill-rule="nonzero"></path>
                        </g>
                    </g>
                </g>
            </g>
        </g>
    </g>
</svg>